<svg width="272" height="76" viewBox="0 0 272 76" fill="none" xmlns="http://www.w3.org/2000/svg">
<g clip-path="url(#clip0_269_15)">
<path d="M19.2075 50.9458C16.4574 50.9458 13.9007 50.2588 11.5373 48.8848C9.17399 47.5107 7.30479 45.6644 5.92975 43.3458C4.5547 40.9842 3.86719 38.4509 3.86719 35.7458C3.86719 33.0407 4.5547 30.5288 5.92975 28.2102C7.30479 25.8486 9.17399 23.9808 11.5373 22.6068C13.9007 21.2327 16.4574 20.5458 19.2075 20.5458C22.0006 20.5458 24.6432 21.2971 27.1354 22.8C29.6277 24.2599 31.3679 26.1707 32.3563 28.5322V21.2543H34.4188V50.2373H32.3563V43.0237C31.1961 45.4283 29.3914 47.3605 26.9421 48.8204C24.5357 50.2373 21.9575 50.9458 19.2075 50.9458ZM19.3364 49.1424C21.6997 49.1424 23.8912 48.5412 25.9108 47.339C27.9304 46.0938 29.5203 44.4622 30.6805 42.4441C31.8836 40.3831 32.4852 38.1503 32.4852 35.7458C32.4852 33.3842 31.8836 31.1729 30.6805 29.1119C29.4773 27.0509 27.866 25.4192 25.8463 24.217C23.8267 22.9717 21.6352 22.3492 19.2719 22.3492C16.9086 22.3492 14.6956 22.9717 12.6331 24.217C10.6135 25.4622 8.98062 27.1153 7.73449 29.1763C6.53133 31.2373 5.92975 33.4486 5.92975 35.8102C5.92975 38.1717 6.53133 40.3831 7.73449 42.4441C8.98062 44.4622 10.635 46.0938 12.6975 47.339C14.7601 48.5412 16.9731 49.1424 19.3364 49.1424ZM42.5542 21.2543H44.6168V25.6339C46.5935 22.2419 49.7732 20.5458 54.1561 20.5458C56.2617 20.5458 58.0879 21.147 59.6348 22.3492C61.1817 23.5085 62.2561 25.269 62.8575 27.6305C63.4162 25.5266 64.6409 23.8305 66.5315 22.5424C68.4651 21.2114 70.6352 20.5458 73.0414 20.5458C76.1783 20.5458 78.6061 21.469 80.3248 23.3153C82.0437 25.1187 82.903 27.6949 82.903 31.0441V50.2373H80.8405V31.0441C80.8405 28.339 80.1315 26.2136 78.7135 24.6678C77.3385 23.122 75.5123 22.3492 73.2348 22.3492C71.516 22.3492 69.9262 22.7785 68.4651 23.6373C67.0042 24.4531 65.844 25.5695 64.9846 26.9865C64.1252 28.4034 63.6955 29.9707 63.6955 31.6881V50.2373H61.6329V32.2034C61.6329 29.1119 60.9025 26.7073 59.4414 24.9898C57.9805 23.2293 56.0898 22.3492 53.7694 22.3492C52.2225 22.3492 50.74 22.7356 49.322 23.5085C47.947 24.2814 46.8083 25.3334 45.9059 26.6644C45.0466 27.9526 44.6168 29.3695 44.6168 30.9153V50.2373H42.5542V21.2543ZM105.137 49.2068C107.371 49.2068 109.498 48.6271 111.518 47.4678C113.538 46.3085 115.214 44.7198 116.546 42.7017V45.9865C114.956 47.7469 113.215 49.0351 111.325 49.8509C109.434 50.6237 107.286 51.0102 104.879 51.0102C102.215 51.0102 99.7013 50.3017 97.338 48.8848C95.0176 47.4678 93.1484 45.5785 91.7304 43.217C90.3553 40.8554 89.6679 38.3436 89.6679 35.6814C89.6679 32.8046 90.3553 30.2283 91.7304 27.9526C93.1055 25.6339 94.9747 23.8305 97.338 22.5424C99.7444 21.2543 102.408 20.6102 105.33 20.6102C109.799 20.6102 113.602 22.3707 116.739 25.8915L96.5001 45.8576C97.9181 47.017 99.2932 47.8758 100.625 48.4339C101.957 48.9492 103.461 49.2068 105.137 49.2068ZM91.7304 35.4881C91.7304 39.052 92.9121 42.1005 95.2754 44.6339L114.161 25.8915C112.743 24.6463 111.368 23.7661 110.036 23.2509C108.704 22.6927 107.114 22.4136 105.266 22.4136C102.645 22.4136 100.303 22.9932 98.2404 24.1526C96.2207 25.269 94.6309 26.8147 93.4707 28.7898C92.3105 30.7649 91.7304 32.9978 91.7304 35.4881ZM123.186 21.2543H125.249V27.9526C126.108 25.8486 127.354 24.1955 128.987 22.9932C130.663 21.791 132.553 21.1898 134.659 21.1898C135.991 21.1898 137.344 21.469 138.72 22.0271V24.4102C137.473 23.4656 136.077 22.9932 134.53 22.9932C132.983 22.9932 131.479 23.4656 130.018 24.4102C128.6 25.3548 127.44 26.6215 126.538 28.2102C125.678 29.7988 125.249 31.4949 125.249 33.2983V50.2373H123.186V21.2543ZM154.208 50.6237C151.03 50.6237 148.387 49.6576 146.28 47.7254C144.218 45.7932 143.187 43.131 143.187 39.739V9.59663H145.249V21.2543H154.144V23.0576H145.249V39.739C145.249 42.5729 146.087 44.8056 147.763 46.4373C149.483 48.026 151.63 48.8204 154.208 48.8204V50.6237ZM237.469 50.9458C235.406 50.9458 233.58 50.6022 231.99 49.9153C230.401 49.1853 229.261 48.2622 228.574 47.1458V43.7322C229.39 45.5785 230.508 46.9526 231.926 47.8543C233.344 48.7131 235.148 49.1424 237.34 49.1424C239.445 49.1424 241.143 48.4983 242.432 47.2102C243.721 45.8792 244.365 44.1831 244.365 42.122C244.365 40.3616 244.001 39.009 243.27 38.0644C242.539 37.0768 241.358 36.0893 239.725 35.1017L237.275 33.6848C235.513 32.6114 234.182 31.7741 233.279 31.1729C232.419 30.5288 231.732 29.8204 231.217 29.0475C230.701 28.2317 230.443 27.287 230.443 26.2136C230.443 24.4961 231.045 23.122 232.248 22.0915C233.451 21.061 235.019 20.5458 236.953 20.5458C239.316 20.5458 241.294 21.0825 242.883 22.1559V24.9898C241.551 23.2293 239.638 22.3492 237.147 22.3492C235.771 22.3492 234.655 22.6927 233.795 23.3797C232.935 24.0666 232.506 24.947 232.506 26.0204C232.506 26.9649 232.764 27.8022 233.279 28.5322C233.795 29.2192 234.504 29.8632 235.406 30.4644C236.351 31.0656 237.898 31.9673 240.047 33.1695C242.238 34.4147 243.85 35.7029 244.881 37.0339C245.912 38.322 246.428 40.0181 246.428 42.122C246.428 44.7842 245.548 46.931 243.785 48.5627C242.067 50.1514 239.961 50.9458 237.469 50.9458ZM252.852 2.06104H254.914V31.3017L266.387 21.2543H269.03L255.752 32.8475L272.381 50.2373H269.61L254.914 34.7797V50.2373H252.852V2.06104Z" fill="#789D8E" stroke="#789D8E" stroke-width="2"/>
<mask id="mask0_269_15" style="mask-type:luminance" maskUnits="userSpaceOnUse" x="160" y="0" width="65" height="65">
<path d="M224.496 0H160.042V64.4068H224.496V0Z" fill="white"/>
</mask>
<g mask="url(#mask0_269_15)">
<path d="M206.535 54.9351C201.33 58.1944 195.163 59.5719 189.064 58.8379C182.965 58.1041 177.302 55.303 173.02 50.902C168.738 46.5009 166.095 40.766 165.532 34.6534C164.97 28.5408 166.52 22.4203 169.928 17.3122C173.333 12.2042 178.389 8.41745 184.252 6.58366C190.115 4.74987 196.429 4.9798 202.142 7.23494C207.855 9.49021 212.622 13.6345 215.648 18.9768C218.674 24.319 219.776 30.5362 218.769 36.5916" stroke="#E9C46A" stroke-width="3" stroke-linecap="round" stroke-linejoin="round"/>
<path d="M189.691 31.6666L197.748 39.7175L224.603 12.8813" stroke="#E9C46A" stroke-width="3" stroke-linecap="round" stroke-linejoin="round"/>
</g>
</g>
<defs>
<clipPath id="clip0_269_15">
<rect width="272" height="76" fill="white"/>
</clipPath>
</defs>
</svg>
